<svg width="80.000000" height="61.000000" viewBox="0 0 80 61" fill="none" xmlns="http://www.w3.org/2000/svg" xmlns:xlink="http://www.w3.org/1999/xlink">
	<desc>
			Created with Pixso.
	</desc>
	<defs/>
	<path id="Vector" d="M20 58L1.33 58C0.59 58 0 58.59 0 59.33C0 60.07 0.59 60.66 1.33 60.66L20 60.66C20.73 60.66 21.33 60.07 21.33 59.33C21.33 58.59 20.73 58 20 58Z" fill="#D4C17F" fill-opacity="1.000000" fill-rule="nonzero"/>
	<path id="Vector" d="M16 55.33C24.82 55.33 32 48.15 32 39.33C32 34.91 30.23 30.8 27.04 27.74C26.5 27.24 25.66 27.26 25.15 27.79C24.64 28.32 24.66 29.17 25.19 29.67C27.86 32.22 29.33 35.64 29.33 39.33C29.33 46.68 23.35 52.66 16 52.66C8.64 52.66 2.66 46.68 2.66 39.33C2.66 31.97 8.64 25.99 16 25.99C16.73 25.99 17.33 25.4 17.33 24.66C17.33 23.92 16.73 23.33 16 23.33C7.17 23.33 0 30.5 0 39.33C9.15e-5 48.15 7.17 55.33 16 55.33Z" fill="#D4C17F" fill-opacity="1.000000" fill-rule="nonzero"/>
	<path id="Vector" d="M22.66 17.99L23.34 17.99L15.64 36.7C14.34 36.87 13.33 37.98 13.33 39.33C13.33 40.8 14.52 41.99 16 41.99C17.47 41.99 18.66 40.8 18.66 39.33C18.66 38.72 18.45 38.16 18.1 37.71L25.63 19.44L34.06 31.69C34.48 32.3 35.31 32.45 35.92 32.04C36.53 31.62 36.68 30.79 36.26 30.18L27.86 17.99L30.66 17.99C32.87 17.99 34.66 16.2 34.66 13.99C34.66 11.79 32.87 9.99 30.66 9.99L22.66 9.99C21.92 9.99 21.33 10.59 21.33 11.33L21.33 16.66C21.33 17.4 21.92 17.99 22.66 17.99ZM24 12.66L30.66 12.66C31.4 12.66 32 13.26 32 13.99C32 14.73 31.4 15.33 30.66 15.33L24 15.33L24 12.66Z" fill="#D4C17F" fill-opacity="1.000000" fill-rule="nonzero"/>
	<path id="Vector" d="M62.66 24.66C62.66 25.4 63.26 25.99 64 25.99C71.35 25.99 77.33 31.97 77.33 39.33C77.33 46.68 71.35 52.66 64 52.66C56.64 52.66 50.66 46.68 50.66 39.33C50.66 35.33 52.43 31.58 55.52 29.03C56.09 28.57 56.17 27.73 55.7 27.16C55.23 26.59 54.39 26.51 53.82 26.98C50.12 30.03 48 34.53 48 39.33C48 48.15 55.17 55.33 64 55.33C72.82 55.33 80 48.15 80 39.33C80 30.5 72.82 23.33 64 23.33C63.26 23.33 62.66 23.92 62.66 24.66Z" fill="#D4C17F" fill-opacity="1.000000" fill-rule="nonzero"/>
	<path id="Vector" d="M41.33 58L28 58C27.26 58 26.66 58.59 26.66 59.33C26.66 60.07 27.26 60.66 28 60.66L41.33 60.66C42.07 60.66 42.66 60.07 42.66 59.33C42.66 58.59 42.07 58 41.33 58Z" fill="#D4C17F" fill-opacity="1.000000" fill-rule="nonzero"/>
	<path id="Vector" d="M41.33 32.85L41.33 28.66C42.07 28.66 42.66 28.06 42.66 27.33C42.66 26.59 42.07 25.99 41.33 25.99L38.66 25.99C37.92 25.99 37.33 26.59 37.33 27.33C37.33 28.06 37.92 28.66 38.66 28.66L38.66 32.85C36.37 33.45 34.66 35.51 34.66 37.99C34.66 40.47 36.37 42.54 38.66 43.14L38.66 47.33C37.92 47.33 37.33 47.92 37.33 48.66C37.33 49.4 37.92 49.99 38.66 49.99L41.33 49.99C42.07 49.99 42.66 49.4 42.66 48.66C42.66 47.92 42.07 47.33 41.33 47.33L41.33 43.14C43.62 42.54 45.33 40.47 45.33 37.99C45.33 35.51 43.62 33.45 41.33 32.85ZM39.99 40.66C38.53 40.66 37.33 39.46 37.33 37.99C37.33 36.52 38.53 35.33 39.99 35.33C41.47 35.33 42.66 36.52 42.66 37.99C42.66 39.46 41.47 40.66 39.99 40.66Z" fill="#D4C17F" fill-opacity="1.000000" fill-rule="nonzero"/>
	<path id="Vector" d="M61.94 37.65C61.56 38.11 61.33 38.69 61.33 39.33C61.33 40.8 62.53 41.99 64 41.99C65.46 41.99 66.66 40.8 66.66 39.33C66.66 38.01 65.69 36.92 64.44 36.7L58.42 20.66L67.94 20.66C69.53 20.66 70.46 19.38 70.64 18.25L71.97 11.59C72.05 11.2 71.95 10.79 71.69 10.48C71.44 10.17 71.06 9.99 70.66 9.99L58.66 9.99C57.92 9.99 57.33 10.59 57.33 11.33C57.33 12.06 57.92 12.66 58.66 12.66L69.04 12.66L68.02 17.76C68 17.85 67.94 17.98 67.94 17.99L57.42 17.99L53.24 6.86C53.24 6.85 53.24 6.85 53.24 6.85C53.23 6.84 53.24 6.83 53.23 6.83L50.57 0.16C50.29 -0.52 49.51 -0.85 48.83 -0.58C48.15 -0.31 47.82 0.47 48.09 1.15L50.52 7.22L45.5 16C45.14 16.64 45.36 17.45 46 17.82C46.21 17.94 46.44 17.99 46.66 17.99C47.12 17.99 47.57 17.75 47.82 17.32L51.74 10.45L54.95 19.01L44.79 30.44C44.3 30.99 44.35 31.83 44.9 32.32C45.15 32.55 45.47 32.66 45.79 32.66C46.15 32.66 46.52 32.51 46.78 32.21L56.01 21.83L61.94 37.65Z" fill="#D4C17F" fill-opacity="1.000000" fill-rule="nonzero"/>
	<path id="Vector" d="M78.66 58L57.33 58C56.59 58 56 58.59 56 59.33C56 60.07 56.59 60.66 57.33 60.66L78.66 60.66C79.4 60.66 79.99 60.07 79.99 59.33C80 58.59 79.4 58 78.66 58Z" fill="#D4C17F" fill-opacity="1.000000" fill-rule="nonzero"/>
	<path id="Vector" d="M52 58L49.33 58C48.59 58 48 58.59 48 59.33C48 60.07 48.59 60.66 49.33 60.66L52 60.66C52.73 60.66 53.33 60.07 53.33 59.33C53.33 58.59 52.73 58 52 58Z" fill="#D4C17F" fill-opacity="1.000000" fill-rule="nonzero"/>
</svg>
