<svg width="172.000000" height="28.000000" viewBox="0 0 172 28" fill="none" xmlns="http://www.w3.org/2000/svg" xmlns:xlink="http://www.w3.org/1999/xlink">
	<desc>
			Created with Pixso.
	</desc>
	<defs/>
	<path id="LoftHouse" d="M44.83 7.36L49.23 7.36L49.23 9.92L44.83 9.92L44.83 27L41.81 27L41.81 9.92L38.65 9.92L38.65 7.36L41.81 7.36L41.81 4.64C41.81 1.27 44.53 -0.42 47.34 -0.42C48.82 -0.42 49.74 -0.11 50.2 0.1L49.33 2.7C49.03 2.61 48.52 2.39 47.65 2.39C45.65 2.39 44.83 3.42 44.83 5.37L44.83 7.36ZM14.5 27L-0.83 27L-0.83 0.81L2.33 0.81L2.33 24.18L14.5 24.18L14.5 27ZM70.55 27L67.38 27L67.38 0.81L70.55 0.81L70.55 12.48L84.51 12.48L84.51 0.81L87.69 0.81L87.69 27L84.51 27L84.51 15.29L70.55 15.29L70.55 27ZM57.82 7.36L62.01 7.36L62.01 9.92L57.82 9.92L57.82 21.37C57.82 23.93 59.1 24.33 60.42 24.33C61.09 24.33 61.5 24.24 61.76 24.18L62.37 26.89C61.96 27.05 61.25 27.25 60.12 27.25C57.57 27.25 54.8 25.62 54.8 22.19L54.8 9.92L51.84 9.92L51.84 7.36L54.8 7.36L54.8 2.66L57.82 2.66L57.82 7.36ZM35.88 17.28C35.88 23.37 32.3 27.41 26.99 27.41C21.67 27.41 18.08 23.37 18.08 17.28C18.08 11.14 21.67 7.11 26.99 7.11C32.3 7.11 35.88 11.14 35.88 17.28ZM110.49 17.28C110.49 23.37 106.91 27.41 101.59 27.41C96.28 27.41 92.69 23.37 92.69 17.28C92.69 11.14 96.28 7.11 101.59 7.11C106.91 7.11 110.49 11.14 110.49 17.28ZM142.96 7.11C146.85 7.11 148.97 8.97 149.92 11.75L147.2 12.52C146.68 11.17 145.59 9.71 142.96 9.71C140.56 9.71 138.77 10.94 138.77 12.62C138.77 14.14 139.82 14.91 142.14 15.49L145.06 16.2C148.56 17.06 150.27 18.79 150.27 21.52C150.27 24.91 147.17 27.41 142.61 27.41C138.59 27.41 135.84 25.62 135.14 22.29L138 21.57C138.54 23.68 140.08 24.75 142.55 24.75C145.37 24.75 147.16 23.37 147.16 21.68C147.16 20.32 146.22 19.37 144.24 18.92L140.97 18.14C137.36 17.3 135.75 15.49 135.75 12.78C135.75 9.45 138.82 7.11 142.96 7.11ZM170.88 22.44C169.96 25.41 167.05 27.41 163.06 27.41C157.38 27.41 153.9 23.37 153.9 17.33C153.9 11.3 157.43 7.11 162.75 7.11C166.84 7.11 171.19 9.61 171.19 16.92L171.19 18.2L156.93 18.2C157.07 22.41 159.52 24.69 163.06 24.69C165.42 24.69 167.2 23.67 167.96 21.62L170.88 22.44ZM122.4 24.33C124.65 24.33 127.47 22.64 127.47 18.97L127.47 7.36L130.48 7.36L130.48 27L127.47 27L127.47 23.67L127.26 23.67C126.34 25.67 124.4 27.25 121.44 27.25C117.75 27.25 115.09 24.85 115.09 19.83L115.09 7.36L118.11 7.36L118.11 19.63C118.11 22.5 119.9 24.33 122.4 24.33ZM21.11 17.28C21.11 21.22 22.94 24.69 26.99 24.69C31.02 24.69 32.87 21.22 32.87 17.28C32.87 13.35 31.02 9.81 26.99 9.81C22.94 9.81 21.11 13.35 21.11 17.28ZM95.71 17.28C95.71 21.22 97.55 24.69 101.59 24.69C105.63 24.69 107.47 21.22 107.47 17.28C107.47 13.35 105.63 9.81 101.59 9.81C97.55 9.81 95.71 13.35 95.71 17.28ZM162.75 9.81C159.3 9.81 157.13 12.54 156.93 15.6L168.12 15.6C168.12 12.26 166.02 9.81 162.75 9.81Z" fill="#FFFFFF" fill-opacity="1.000000" fill-rule="evenodd"/>
</svg>
