<svg width="14.000000" height="21.000000" viewBox="0 0 14 21" fill="none" xmlns="http://www.w3.org/2000/svg" xmlns:xlink="http://www.w3.org/1999/xlink">
	<desc>
			Created with Pixso.
	</desc>
	<defs/>
	<path d="M6.56 4.6C5.08 4.6 3.88 5.8 3.88 7.28C3.88 8.76 5.08 9.97 6.56 9.97C8.04 9.97 9.25 8.76 9.25 7.28C9.25 5.8 8.04 4.6 6.56 4.6ZM6.56 9.2C5.51 9.2 4.65 8.34 4.65 7.28C4.65 6.22 5.51 5.36 6.56 5.36C7.62 5.36 8.48 6.22 8.48 7.28C8.48 8.34 7.62 9.2 6.56 9.2Z" fill="#FFFFFF" fill-opacity="1.000000" fill-rule="nonzero"/>
	<path d="M11.7 2.15C10.31 0.76 8.46 0 6.5 0C4.53 0 2.68 0.76 1.3 2.15C-1.28 4.72 -1.59 9.56 0.6 12.49L6.5 21L12.38 12.5C14.59 9.56 14.27 4.72 11.7 2.15ZM11.76 12.05L6.5 19.65L1.23 12.04C-0.77 9.38 -0.48 5.01 1.84 2.69C3.08 1.45 4.74 0.76 6.5 0.76C8.26 0.76 9.91 1.45 11.15 2.69C13.47 5.01 13.76 9.38 11.76 12.05Z" fill="#FFFFFF" fill-opacity="1.000000" fill-rule="nonzero"/>
</svg>
