<svg width="21.000000" height="21.000000" viewBox="0 0 21 21" fill="none" xmlns="http://www.w3.org/2000/svg" xmlns:xlink="http://www.w3.org/1999/xlink">
	<desc>
			Created with Pixso.
	</desc>
	<defs/>
	<path d="M19.98 17.28C19.91 16.77 19.62 16.34 19.18 16.09L14 13.1C13.37 12.74 12.56 12.84 12.04 13.36L11.02 14.38C10.75 14.65 10.32 14.68 10.02 14.44C9.22 13.79 8.43 13.08 7.67 12.32C6.91 11.56 6.2 10.77 5.55 9.97C5.31 9.67 5.34 9.24 5.61 8.97L6.63 7.95C7.15 7.43 7.25 6.62 6.89 5.99L3.91 0.81C3.65 0.37 3.22 0.08 2.71 0.01C2.21 -0.06 1.71 0.11 1.35 0.47L-0.19 2.01C-1.26 3.08 -1.28 5.04 -0.24 7.54C0.77 9.93 2.64 12.57 5.03 14.96C7.42 17.35 10.06 19.22 12.45 20.23C13.68 20.74 14.78 20.99 15.71 20.99C16.66 20.99 17.44 20.72 17.98 20.18L19.52 18.64C19.88 18.28 20.05 17.78 19.98 17.28ZM13.66 13.69L18.84 16.67C19.1 16.82 19.27 17.08 19.31 17.37C19.34 17.61 19.28 17.86 19.13 18.05L12.25 14.12L12.53 13.84C12.83 13.54 13.29 13.48 13.66 13.69ZM2.62 0.68C2.92 0.72 3.17 0.89 3.32 1.15L6.3 6.33C6.51 6.7 6.45 7.16 6.15 7.47L5.89 7.72L1.94 0.86C2.1 0.74 2.29 0.68 2.5 0.68C2.54 0.68 2.58 0.68 2.62 0.68ZM17.5 19.7C16.65 20.55 14.9 20.51 12.72 19.6C10.4 18.63 7.84 16.81 5.51 14.48C3.18 12.15 1.36 9.59 0.39 7.27C-0.52 5.09 -0.56 3.34 0.29 2.49L1.44 1.35L5.39 8.22L5.13 8.49C4.61 9 4.56 9.82 5.02 10.39C5.69 11.22 6.41 12.03 7.19 12.8C7.96 13.58 8.77 14.3 9.6 14.97C10.17 15.43 10.99 15.38 11.5 14.86L11.75 14.62L18.64 18.56L17.5 19.7Z" fill="#FFFFFF" fill-opacity="1.000000" fill-rule="nonzero"/>
</svg>
